<svg width="44" height="44" viewBox="0 0 44 44" fill="none" xmlns="http://www.w3.org/2000/svg">
<path d="M33 29.48C31.6067 29.48 30.36 30.03 29.4067 30.8917L16.335 23.2833C16.4267 22.8617 16.5 22.44 16.5 22C16.5 21.56 16.4267 21.1383 16.335 20.7167L29.26 13.1817C30.25 14.0983 31.5517 14.6667 33 14.6667C36.0433 14.6667 38.5 12.21 38.5 9.16666C38.5 6.12332 36.0433 3.66666 33 3.66666C29.9567 3.66666 27.5 6.12332 27.5 9.16666C27.5 9.60666 27.5733 10.0283 27.665 10.45L14.74 17.985C13.75 17.0683 12.4483 16.5 11 16.5C7.95667 16.5 5.5 18.9567 5.5 22C5.5 25.0433 7.95667 27.5 11 27.5C12.4483 27.5 13.75 26.9317 14.74 26.015L27.7933 33.6417C27.7017 34.0267 27.6467 34.43 27.6467 34.8333C27.6467 37.785 30.0483 40.1867 33 40.1867C35.9517 40.1867 38.3533 37.785 38.3533 34.8333C38.3533 31.8817 35.9517 29.48 33 29.48Z" fill="white"/>
</svg>
